<svg id="Layer_1" data-name="Layer 1" xmlns="http://www.w3.org/2000/svg" width="290.27" height="317.28" viewBox="0 0 290.27 317.28">
  <defs>
    <style>
      .cls-1 {
        fill: #fff;
      }
    </style>
  </defs>
  <title>CBU-shield-reverse</title>
  <g>
    <path class="cls-1" d="M502.24,432.4l-.07-95.73-95.73-.07L516.56,225.34H390.09V363.6h0a112.1,112.1,0,0,0,224.14,0h0V319.19Z" transform="translate(-357.06 -190.59)"/>
    <path class="cls-1" d="M630.55,207.37V365.68a128.39,128.39,0,0,1-256.72,0V207.37H630.55m16.78-16.78H357.06V366.06a145.17,145.17,0,0,0,290.26,0V190.59Z" transform="translate(-357.06 -190.59)"/>
    <path class="cls-1" d="M538.06,272c-13.93,0-24.28-10.25-24.28-23.21v-.13c0-12.83,10.15-23.34,24.69-23.34,8.93,0,14.27,2.84,18.67,7l-6.63,7.29c-3.65-3.16-7.37-5.09-12.11-5.09-8,0-13.73,6.32-13.73,14v.13c0,7.74,5.61,14.18,13.73,14.18,5.41,0,8.72-2.06,12.44-5.29l6.63,6.38C552.6,268.92,547.19,272,538.06,272Z" transform="translate(-357.06 -190.59)"/>
    <path class="cls-1" d="M607.17,238.22v-.13c0-8.25-7-12.38-17.72-12.38H565.7v45.53h23.75c10.69,0,17.72-4.13,17.72-12.38v-.13c0-5.28-2.56-8.25-6.84-10.25C604.6,246.47,607.17,243.5,607.17,238.22Zm-31.33-3.8h13.61c4.6,0,7.37,1.55,7.37,4.9v.13c0,3-2.37,4.9-7.71,4.9H575.84v-9.93Zm21,23.22c0,3.35-2.77,4.9-7.37,4.9H575.84v-9.93h13.27c5.34,0,7.71,1.87,7.71,4.9v.13Z" transform="translate(-357.06 -190.59)"/>
    <path class="cls-1" d="M586.51,326.67c-12.72,0-20.49-6.77-20.49-20.05V280.83h10.42v25.53c0,7.35,3.85,11.15,10.21,11.15s10.21-3.68,10.21-10.83V280.83h10.42v25.46C607.27,320,599.22,326.67,586.51,326.67Z" transform="translate(-357.06 -190.59)"/>
  </g>
</svg>
