<?xml version="1.0" encoding="UTF-8"?>
<svg width="183px" height="76px" viewBox="0 0 183 76" version="1.1" xmlns="http://www.w3.org/2000/svg" xmlns:xlink="http://www.w3.org/1999/xlink">
    <!-- Generator: Sketch 55.2 (78181) - https://sketchapp.com -->
    <title>logo/reverse-full</title>
    <desc>Created with Sketch.</desc>
    <defs>
        <polygon id="path-1" points="0 -2.76e-05 63.9245135 -2.76e-05 63.9245135 68.9999724 0 68.9999724"></polygon>
        <polygon id="path-3" points="0.182857143 0.268615385 15.72 0.268615385 15.72 17.8199723 0.182857143 17.8199723"></polygon>
        <polygon id="path-5" points="0 70 184 70 184 1 0 1"></polygon>
    </defs>
    <g id="logo/reverse-full" stroke="none" stroke-width="1" fill="none" fill-rule="evenodd">
        <g id="Group-40" transform="translate(0.000000, 3.000000)">
            <path d="M31.5083201,53.127228 L31.4944532,32.2618316 L10.5721078,32.2480025 L34.6366878,8 L7,8 L7,38.1309158 L7.00832013,38.1309158 C7.30784469,51.3653964 18.15729,62 31.5,62 C44.84271,62 55.6921553,51.3653964 55.9916799,38.1309158 L56,38.1309158 L56,28.4532883 L31.5083201,53.127228 Z" id="Fill-1" fill="#FFFFFF"></path>
            <g id="Group-5" transform="translate(0.000000, 1.000000)">
                <mask id="mask-2" fill="white">
                    <use xlink:href="#path-1"></use>
                </mask>
                <g id="Clip-4"></g>
                <path d="M63.9245135,-2.76e-05 L60.229841,-2.76e-05 L3.69464454,-2.76e-05 L-2.79475983e-05,-2.76e-05 L-2.79475983e-05,3.6486924 L-2.79475983e-05,38.0769324 L-2.79475983e-05,38.1183324 L-2.79475983e-05,38.1597324 C0.190015721,46.4397324 3.59962271,54.1928484 9.59997205,59.9913324 C15.6115004,65.8011324 23.5514131,68.9999724 31.9608454,68.9999724 C40.3702777,68.9999724 48.3129852,65.8011324 54.3217188,59.9913324 C60.3220681,54.1925724 63.7316751,46.4369724 63.9217188,38.1597324 L63.9217188,38.1183324 L63.9217188,38.0769324 L63.9217188,3.6486924 L63.9217188,-2.76e-05 L63.9245135,-2.76e-05 Z M60.229841,3.6486924 L60.229841,38.0769324 C59.8832908,53.1962124 47.3571773,65.3512524 31.9636402,65.3512524 C16.5701031,65.3512524 4.04119476,53.1989724 3.6974393,38.0769324 L3.6974393,3.6486924 L60.229841,3.6486924 L60.229841,3.6486924 Z" id="Fill-3" fill="#FFFFFF" mask="url(#mask-2)"></path>
            </g>
            <g id="Group-8" transform="translate(72.000000, 0.000000)">
                <mask id="mask-4" fill="white">
                    <use xlink:href="#path-3"></use>
                </mask>
                <g id="Clip-7"></g>
                <path d="M15.72,15.5021262 C14.8285714,16.38828 12.9742857,17.8199723 9.38857143,17.8199723 C4.22571429,17.8199723 0.182857143,14.51628 0.182857143,9.04428 C0.182857143,3.54735692 4.27714286,0.268587692 9.38857143,0.268587692 C13,0.268587692 14.9571429,1.72243385 15.4142857,2.19043385 L14.1428571,5.49412615 C13.8114286,5.07597231 11.9314286,3.71904923 9.61714286,3.71904923 C6.64285714,3.71904923 4.35428571,5.64089538 4.35428571,8.96951077 C4.35428571,12.2981262 6.74571429,14.1950492 9.61714286,14.1950492 C11.8028571,14.1950492 13.38,13.3559723 14.3454286,12.3950492 L15.72,15.5021262 Z" id="Fill-6" fill="#FFFFFF" mask="url(#mask-4)"></path>
            </g>
            <path d="M95.9896153,12.2219058 L93.9985839,12.347207 C92.7637479,12.3984666 92.0330422,12.9309967 92.0330422,13.867908 C92.0330422,14.8304491 92.8147274,15.4142388 93.9249469,15.4142388 C95.0096767,15.4142388 95.7403823,14.7051479 95.9924475,14.2751369 L95.9924475,12.2219058 L95.9896153,12.2219058 Z M100,17.72092 L96.1425537,17.72092 L96.0660845,16.4024096 C95.5361813,16.9349398 94.5282039,18 92.5116828,18 C90.3192825,18 88,16.8096386 88,14.0216867 C88,11.2337349 90.5461411,10.2968237 92.8402171,10.1943045 L95.9669578,10.0690033 L95.9669578,9.78992333 C95.9669578,8.47141292 95.0351664,7.78795181 93.4208166,7.78795181 C91.8319566,7.78795181 90.2459287,8.49704272 89.6143498,8.90427163 L88.5551097,6.26725082 C89.6143498,5.7347207 91.5544017,5 93.8739674,5 C96.1935332,5 97.5303281,5.53253012 98.5130989,6.44381161 C99.47038,7.3550931 100,8.57393209 100,10.675575 L100,17.72092 Z" id="Fill-9" fill="#FFFFFF"></path>
            <path d="M108.389605,8.13768712 C106.780233,8.13768712 105.665644,9.43247245 105.665644,11.322915 C105.665644,13.2133575 106.777307,14.5081428 108.389605,14.5081428 C110.022918,14.5081428 111.137508,13.2133575 111.137508,11.322915 C111.137508,9.43247245 110.022918,8.13768712 108.389605,8.13768712 M109.480254,17.7688765 C107.751177,17.7688765 106.519542,17.0977134 105.788009,15.9511433 L105.788009,22 L102,22 L102,5.22372101 L105.599141,5.22372101 L105.5752,6.79256457 L105.623082,6.79256457 C106.47432,5.72150025 107.730162,5 109.506855,5 C112.869245,5 115,7.76295443 115,11.3732522 C115,14.9835499 112.863925,17.7688765 109.480254,17.7688765" id="Fill-11" fill="#FFFFFF"></path>
            <path d="M125.227371,10.1419185 C125.201747,9.00021901 124.364966,7.63359615 122.668056,7.63359615 C120.996772,7.63359615 120.133796,8.95181778 120.082832,10.1419185 L125.227371,10.1419185 Z M128.951461,12.4480946 L120.057208,12.4480946 C120.233732,14.2474814 121.603217,15.0589137 123.248878,15.0589137 C124.871476,15.0589137 126.289363,14.3499781 126.998592,13.868813 L128.595566,15.9728428 C128.191268,16.2774858 126.542761,18 122.664925,18 C118.812997,18 116,15.6169514 116,11.4886115 C116,7.36027157 119.04077,5 122.742083,5 C126.440548,5 128.999863,7.45707403 128.999863,11.1070959 C129.002995,11.7135348 128.951461,12.4480946 128.951461,12.4480946 L128.951461,12.4480946 Z" id="Fill-13" fill="#FFFFFF"></path>
            <path d="M81.1625367,32.098681 C80.5783284,31.6806709 79.9231415,31.6308419 79.0741285,31.6308419 L76.9120118,31.6308419 L76.9120118,35.9659665 L79.0741285,35.9659665 C79.9258715,35.9659665 80.5810584,35.9164143 81.1625367,35.4981273 C81.7467451,35.1050318 82.0142797,34.5375346 82.0142797,33.7984042 C82.0115498,33.0343592 81.7440151,32.5166911 81.1625367,32.098681 M80.2862243,25.2997883 C79.8248635,25.0035825 79.3880722,24.9537535 78.5363293,24.9537535 L76.9092818,24.9537535 L76.9092818,28.8708679 L78.4407812,28.8708679 C79.3143637,28.8708679 79.8248635,28.8210389 80.2862243,28.5026869 C80.7721546,28.156652 81.1133977,27.7137274 81.1133977,26.8777072 C81.1133977,26.0638333 80.7721546,25.5932259 80.2862243,25.2997883 M84.151827,37.8899202 C83.0816884,38.6788797 81.5774885,39 79.852163,39 L73,39 L73,22 L78.7110458,22 C80.2425451,22 81.7249055,22.1218043 82.8414532,22.7142159 C83.9580008,23.3066276 84.9790004,24.4139391 84.9790004,26.2880638 C84.9790004,28.1594203 83.7887442,29.5906204 82.5247795,30.033545 L82.5247795,30.083374 C84.6131877,30.6010422 86,32.029474 86,34.1250611 C85.9969971,35.990881 85.2192356,37.1009608 84.151827,37.8899202" id="Fill-15" fill="#FFFFFF"></path>
            <path d="M95.7811066,30.0414056 L95.6140351,30.0414056 C95.3978408,29.9104745 94.8931174,29.7300806 94.2213225,29.7300806 C93.3576248,29.7300806 92.7311741,30.2479857 92.4426451,30.6611459 C92.1538462,31.0743062 91.8431849,31.9035363 91.8431849,33.3292301 L91.8431849,39 L88,39 L88,26.2327663 L91.8431849,26.2327663 L91.8188934,28.0454342 L91.8674764,28.0454342 C92.5395412,26.6459266 93.5249663,26 94.7986505,26 C95.5924426,26 96,26.2327663 96,26.2327663 L95.7811066,30.0414056 Z" id="Fill-17" fill="#FFFFFF"></path>
            <path d="M106.224704,31.1418059 C106.198795,30.0001314 105.362024,28.6335385 103.665134,28.6335385 C101.993868,28.6335385 101.130902,29.9517312 101.079939,31.1418059 L106.224704,31.1418059 Z M109.951599,33.4482162 L101.057162,33.4482162 C101.233684,35.2472789 102.602869,36.0589781 104.248795,36.0589781 C105.87166,36.0589781 107.289247,35.3497733 107.998182,34.8686187 L109.595707,36.9726024 C109.191415,37.2772388 107.542926,39 103.665134,39 C99.8126807,39 97,36.6167189 97,32.4884694 C97,28.3602199 100.040451,26 103.741721,26 C107.440429,26 110,28.4570202 110,32.1069622 C110,32.7133878 109.951599,33.4482162 109.951599,33.4482162 L109.951599,33.4482162 Z" id="Fill-19" fill="#FFFFFF"></path>
            <path d="M118,29.4056437 L115.43649,29.4056437 L115.43649,33.8500882 C115.43649,34.9054674 115.576558,35.1566138 115.76684,35.3826455 C115.930693,35.5829982 116.165901,35.6843034 116.660104,35.6843034 C117.249447,35.6843034 117.788577,35.4585538 117.788577,35.4585538 L117.976215,38.5992945 C117.693436,38.6757672 116.660104,39 115.29378,39 C113.953883,39 113.057976,38.5738977 112.471276,37.8458554 C111.884576,37.1178131 111.646725,36.0881129 111.646725,34.2028219 L111.646725,29.4056437 L110,29.4056437 L110,26.3664903 L111.646725,26.3664903 L111.646725,23 L115.433848,23 L115.433848,26.3664903 L117.997357,26.3664903 L117.997357,29.4056437 L118,29.4056437 Z" id="Fill-21" fill="#FFFFFF"></path>
            <path d="M125.512015,29.1945509 C123.824605,29.1945509 122.850072,30.5896756 122.850072,32.4375041 C122.850072,34.2881798 123.824605,35.6804573 125.512015,35.6804573 C127.175128,35.6804573 128.173958,34.2853326 128.173958,32.4375041 C128.173958,30.5868284 127.175128,29.1945509 125.512015,29.1945509 M125.512015,39 C121.80612,39 119,36.5431569 119,32.5115311 C119,28.4799054 121.80345,26 125.512015,26 C129.220579,26 132,28.4827526 132,32.5115311 C132,36.5403097 129.217909,39 125.512015,39" id="Fill-23" fill="#FFFFFF"></path>
            <path d="M145.997214,39 L142.030641,39 L142.030641,32.3457923 C142.030641,30.6611459 141.78273,29.3922784 140.147632,29.3922784 C138.437047,29.3922784 137.966574,30.8415398 137.966574,32.6803939 L137.966574,39 L134,39 L134,26.2327663 L137.966574,26.2327663 L137.941504,28.0713295 L137.991643,28.0713295 C138.660167,26.9310654 139.777159,26 141.537604,26 C145.083565,26 146,28.3829454 146,31.4641898 L146,39 L145.997214,39 Z" id="Fill-25" fill="#FFFFFF"></path>
            <path d="M87,53.7494751 C87,56.1010114 86.5888435,57.7277405 85.402449,59.0111398 C84.2405442,60.2724679 82.4231293,61 80.0010884,61 C77.555102,61 75.7619048,60.2724679 74.5752381,59.0111398 C73.4133333,57.7250156 73,56.1010114 73,53.7494751 L73,44 L76.9482993,44 L76.9482993,53.7494751 C76.9482993,54.9372325 77.0459864,55.8582282 77.6010884,56.539438 C78.1344218,57.1691484 78.9102041,57.5830515 79.9986395,57.5830515 C81.0870748,57.5830515 81.862585,57.1718732 82.3959184,56.539438 C82.9534694,55.8612255 83.0487075,54.9402298 83.0487075,53.7494751 L83.0487075,44 L86.9970068,44 L86.9970068,53.7494751 L87,53.7494751 Z" id="Fill-27" fill="#FFFFFF"></path>
            <path d="M101.997214,61 L98.0308271,61 L98.0308271,54.3459412 C98.0308271,52.6613326 97.7826319,51.3924935 96.1474965,51.3924935 C94.4371504,51.3924935 93.9663873,52.8417224 93.9663873,54.6802444 L93.9663873,61 L90,61 L90,48.2330521 L93.9663873,48.2330521 L93.9413171,50.071574 L93.9914576,50.071574 C94.6599968,48.9313355 95.7770143,48 97.5375009,48 C101.083823,48 102,50.383183 102,53.4643585 L102,61 L101.997214,61 Z" id="Fill-29" fill="#FFFFFF"></path>
            <mask id="mask-6" fill="white">
                <use xlink:href="#path-5"></use>
            </mask>
            <g id="Clip-32"></g>
            <path d="M104.242207,61 L107.75804,61 L107.75804,48.6064648 L104.242207,48.6064648 L104.242207,61 Z M106.000123,47.1744861 C104.812542,47.1744861 104,46.344108 104,45.0872431 C104,43.8557979 104.812789,43 106.000123,43 C107.187704,43 108,43.8557979 108,45.0872431 C108,46.344108 107.187704,47.1744861 106.000123,47.1744861 L106.000123,47.1744861 Z" id="Fill-31" fill="#FFFFFF" mask="url(#mask-6)"></path>
            <polygon id="Fill-33" fill="#FFFFFF" mask="url(#mask-6)" points="123 49 117.878947 61 114.095547 61 109 49 113.211336 49 116.036842 56.5943482 118.836842 49"></polygon>
            <path d="M131.22923,53.1418059 C131.203601,52.0001314 130.366392,50.6335385 128.669478,50.6335385 C126.994776,50.6335385 126.134786,51.9517312 126.083813,53.1418059 L131.22923,53.1418059 Z M134.953955,55.4482162 L126.0579,55.4482162 C126.234454,57.2472789 127.604458,58.0589781 129.250114,58.0589781 C130.873274,58.0589781 132.291403,57.3497733 133.000468,56.8686187 L134.597999,58.9726024 C134.193633,59.2772388 132.544844,61 128.666346,61 C124.813477,61 122,58.6167189 122,54.4884694 C122,50.3602199 125.041574,48 128.74067,48 C132.439481,48 134.999517,50.4570202 134.999517,54.1069622 C135.005497,54.7136725 134.953955,55.4482162 134.953955,55.4482162 L134.953955,55.4482162 Z" id="Fill-34" fill="#FFFFFF" mask="url(#mask-6)"></path>
            <path d="M143.784076,52.0416061 L143.616734,52.0416061 C143.40081,51.9106779 142.896086,51.730288 142.224022,51.730288 C141.360324,51.730288 140.734143,52.2481816 140.445344,52.6613326 C140.156545,53.0744836 139.843455,53.9034041 139.843455,55.329357 L139.843455,61 L136,61 L136,48.2330521 L139.843455,48.2330521 L139.819163,50.0456794 L139.867746,50.0456794 C140.539811,48.6462031 141.524966,48 142.79892,48 C143.592443,48 144,48.2330521 144,48.2330521 L143.784076,52.0416061 Z" id="Fill-35" fill="#FFFFFF" mask="url(#mask-6)"></path>
            <path d="M152.609539,59.9119318 C151.747238,60.6193182 150.569658,61 148.987874,61 C147.212072,61 145.341956,60.4176136 144,59.0795455 L145.438965,56.6761364 C146.398275,57.5372159 147.980059,58.1931818 148.942064,58.1931818 C149.904069,58.1931818 150.572083,57.940625 150.572083,57.1306818 C150.572083,56.3210227 148.845055,55.9176136 148.413905,55.7642045 C147.958502,55.6363636 147.287524,55.4346591 146.735112,55.1821023 C146.1827,54.9289773 144.719483,54.1448864 144.719483,51.9204545 C144.719483,49.4943182 146.735112,48 149.203449,48 C151.674481,48 153.064673,48.9602273 153.73592,49.5426136 L152.488278,51.9204545 C151.8173,51.3636364 150.472649,50.7076705 149.513339,50.7076705 C148.602533,50.7076705 148.098626,50.9602273 148.098626,51.6167614 C148.098626,52.2727273 149.009431,52.5769886 149.825923,52.8295455 C150.642414,53.0823864 151.000808,53.2073864 151.504716,53.4119318 C152.032606,53.6136364 152.631097,53.9431818 153.04069,54.3465909 C153.423336,54.75 154,55.5599432 154,56.8752841 C154,58.1676136 153.47184,59.1789773 152.609539,59.9119318" id="Fill-36" fill="#FFFFFF" mask="url(#mask-6)"></path>
            <path d="M156.241975,61 L159.758025,61 L159.758025,48.6064648 L156.241975,48.6064648 L156.241975,61 Z M158,47.1744861 C156.812346,47.1744861 156,46.344108 156,45.0872431 C156,43.8557979 156.812346,43 158,43 C159.187654,43 160,43.8557979 160,45.0872431 C160,46.344108 159.187654,47.1744861 158,47.1744861 L158,47.1744861 Z" id="Fill-37" fill="#FFFFFF" mask="url(#mask-6)"></path>
            <path d="M169,51.4056437 L166.435823,51.4056437 L166.435823,55.8500882 C166.435823,56.9054674 166.575677,57.1566138 166.766292,57.3826455 C166.930205,57.5829982 167.165499,57.6843034 167.659881,57.6843034 C168.24653,57.6843034 168.7885,57.4585538 168.7885,57.4585538 L168.976206,60.5992945 C168.693589,60.6757672 167.659881,61 166.29306,61 C164.952412,61 164.056444,60.5738977 163.469266,59.8458554 C162.882353,59.1178131 162.647323,58.0881129 162.647323,56.2028219 L162.647323,51.4056437 L161,51.4056437 L161,48.3664903 L162.647323,48.3664903 L162.647323,45 L166.435558,45 L166.435558,48.3664903 L169,48.3664903 L169,51.4056437 Z" id="Fill-38" fill="#FFFFFF" mask="url(#mask-6)"></path>
            <path d="M184,48 L178.451012,61.4601888 C177.54413,63.6531409 176.535223,65 174.415385,65 C172.295263,65 170.960729,64.4009292 170.960729,64.4009292 L171.768421,61.4601888 C171.768421,61.4601888 172.652632,61.7850706 173.256275,61.7850706 C173.709433,61.7850706 174.140486,61.7850706 174.466113,60.9868696 L174.919838,59.9141996 L170,48 L174.211336,48 L177.036842,55.9007891 L179.836842,48 L184,48 Z" id="Fill-39" fill="#FFFFFF" mask="url(#mask-6)"></path>
        </g>
    </g>
</svg>